# File created by Blade
# Date/Time:  Thu Jan 22 18:25:10 2015
# Frame Rate: 120.000 fps
#------------------------------------------------------
:FULLY-SPECIFIED
:DEGREES
2554
root -2.648982 33.133154 -0.418715 7.535360 -1.967661 2.729502
RightUpLeg -2.180884 -5.004083 -2.460980
RightLeg 2.026616 -0.000000 -0.000000
RightFoot -12.682152 -3.497020 3.620829
RightToeBase 5.798453 -0.000000 -0.000000
LeftUpLeg -1.308817 3.443482 0.134101
LeftLeg 1.268737 -0.000000 -0.000000
LeftFoot -10.888843 2.726364 -8.882865
LeftToeBase 8.782398 -0.000000 -0.000000
Spine -11.358046 -10.257988 -1.714494
RightShoulder 7.910710 9.027220 -20.469498
RightArm 51.255946 -35.087740 81.360008
RightForeArm 46.276496 -0.000000 119.223591
RightHand 18.817523 -0.000000 19.187061
RightHandThumb1 -24.326973 -0.000000 -32.862282
LeftShoulder -1.306624 -59.063824 51.952155
LeftArm 66.502855 40.261648 -94.589617
LeftForeArm 9.896097 -0.000000 120.007814
LeftHand 0.774843 -0.000000 -25.790485
LeftHandThumb1 -26.253704 0.000000 33.147579
Head -5.572771 16.809741 -8.710942
2555
root -2.647079 33.132560 -0.417207 7.513939 -1.988278 2.726040
RightUpLeg -2.166262 -4.988439 -2.463718
RightLeg 2.040095 -0.000000 -0.000000
RightFoot -12.695198 -3.496841 3.624730
RightToeBase 5.793447 -0.000000 -0.000000
LeftUpLeg -1.299927 3.488086 0.128713
LeftLeg 1.310100 -0.000000 -0.000000
LeftFoot -10.931641 2.713853 -8.897152
LeftToeBase 8.804947 -0.000000 -0.000000
Spine -11.367762 -10.301446 -1.705180
RightShoulder 7.894624 9.030201 -20.464539
RightArm 51.199033 -35.147308 81.357396
RightForeArm 46.220932 -0.000000 119.229614
RightHand 18.806255 0.000000 19.182523
RightHandThumb1 -24.326973 -0.000000 -32.862282
LeftShoulder -1.292739 -59.023780 51.926015
LeftArm 66.511165 40.321529 -94.591272
LeftForeArm 10.156371 -0.000000 120.158567
LeftHand 0.810728 -0.000000 -25.910334
LeftHandThumb1 -26.253704 0.000000 33.147579
Head -5.543281 16.924851 -8.655049
2556
root -2.645072 33.132033 -0.415750 7.490782 -2.007809 2.729669
RightUpLeg -2.150379 -4.973986 -2.474404
RightLeg 2.053442 -0.000000 -0.000000
RightFoot -12.711697 -3.499197 3.623180
RightToeBase 5.835964 -0.000000 -0.000000
LeftUpLeg -1.273463 3.445539 0.124804
LeftLeg 1.314508 -0.000000 -0.000000
LeftFoot -10.936256 2.757525 -8.884425
LeftToeBase 8.760683 -0.000000 -0.000000
Spine -11.369928 -10.337072 -1.709425
RightShoulder 7.892489 9.036852 -20.455351
RightArm 51.135479 -35.181592 81.373888
RightForeArm 46.148399 -0.000000 119.248938
RightHand 18.812512 -0.000000 19.190191
RightHandThumb1 -24.326973 -0.000000 -32.862282
LeftShoulder -1.277611 -58.994455 51.897508
LeftArm 66.492747 40.384865 -94.621694
LeftForeArm 10.376031 -0.000000 120.253712
LeftHand 0.864073 0.000000 -25.893878
LeftHandThumb1 -26.253704 0.000000 33.147579
Head -5.525832 17.013624 -8.593520
2557
root -2.644099 33.131148 -0.415364 7.477118 -2.031371 2.725323
RightUpLeg -2.148910 -4.944826 -2.475216
RightLeg 2.073926 -0.000000 -0.000000
RightFoot -12.727704 -3.496914 3.660090
RightToeBase 5.819096 -0.000000 -0.000000
LeftUpLeg -1.264733 3.439366 0.122933
LeftLeg 1.337023 -0.000000 -0.000000
LeftFoot -10.972824 2.795920 -8.909059
LeftToeBase 8.811054 -0.000000 -0.000000
Spine -11.381952 -10.352906 -1.709843
RightShoulder 7.879191 9.029016 -20.455621
RightArm 51.075858 -35.192734 81.413575
RightForeArm 46.075390 -0.000000 119.267594
RightHand 18.822052 0.000000 19.228678
RightHandThumb1 -24.326973 -0.000000 -32.862282
LeftShoulder -1.256194 -58.980443 51.858084
LeftArm 66.463438 40.444776 -94.648371
LeftForeArm 10.713399 0.000000 120.306514
LeftHand 0.961644 -0.000000 -25.872343
LeftHandThumb1 -26.253704 0.000000 33.147579
Head -5.506043 17.087894 -8.524975
